<svg width="53" height="53" viewBox="0 0 53 53" fill="none" xmlns="http://www.w3.org/2000/svg">
<rect width="53" height="53" rx="10" fill="url(#paint0_linear_7095_14888)"/>
<g clip-path="url(#clip0_7095_14888)">
<path d="M34.1397 12.0114C33.6782 11.9589 33.2681 12.0876 32.9043 12.4003C32.543 12.7129 32.3428 13.1176 32.2939 13.6168L31.9106 17.529C31.8618 18.0282 31.9814 18.4723 32.272 18.8585C32.5625 19.2447 32.9385 19.4628 33.4023 19.5154L34.7744 19.6704C34.6401 20.0566 34.4839 20.4192 34.3032 20.7555C34.125 21.0971 33.8442 21.4097 33.4731 21.6961C34.1421 21.5884 34.7476 21.3808 35.2969 21.0787C35.8413 20.7792 36.3272 20.3824 36.7422 19.8963L38.2656 20.0697C38.7271 20.1223 39.1372 19.9883 39.501 19.6809C39.8623 19.3682 40.0625 18.9636 40.1113 18.4644L40.4946 14.5521C40.5435 14.0556 40.4238 13.6141 40.1333 13.2227C39.8428 12.8338 39.4668 12.6184 39.0029 12.5658L34.1397 12.0114ZM20.812 26.9641C24.0347 26.126 27.5308 25.9999 31.4443 26.9641C31.7642 27.0429 32.0962 27.2242 32.2622 27.5001C32.3306 27.5789 32.394 27.6656 32.4453 27.7602L34.8574 31.3887L36.3345 27.0351C36.4761 26.6015 36.6592 26.3178 36.9106 26.1864V26.1811L38.5586 24.8543C38.7344 24.7124 38.9858 24.7518 39.1177 24.941C39.2495 25.1302 39.2129 25.4008 39.0371 25.5427L38.0752 26.3178C38.1606 26.3546 38.2485 26.394 38.3364 26.4386L39.3887 25.6977C39.5303 25.5979 39.7231 25.6399 39.8159 25.7949C39.9087 25.9473 39.8696 26.1549 39.728 26.2547L39.1885 26.6331H40.563C40.8047 26.6331 41.0024 26.8459 41.0024 27.106C41.0024 27.3661 40.8047 27.5789 40.563 27.5789H39.3716C39.3472 27.7471 39.2251 27.9652 39.1763 28.1149L36.6152 36.0577H36.6128C36.498 36.4045 36.2734 36.7145 35.9561 36.9142C35.2407 37.3661 34.3203 37.1086 33.9004 36.3362L31.5957 32.5211L30.4605 39.2369C30.209 40.7266 29.3789 41.9983 28.0581 41.9983H24.1982C22.8774 41.9983 22.0474 40.7266 21.7935 39.2369L20.6021 32.1927L18.1021 36.3362C17.6821 37.106 16.7617 37.3661 16.0464 36.9142C15.7266 36.7119 15.5044 36.4045 15.3896 36.0577H15.3872L12.8262 28.1149C12.7773 27.9652 12.6577 27.7471 12.6309 27.5789H11.4395C11.1978 27.5789 11 27.3661 11 27.106C11 26.8459 11.1978 26.6331 11.4395 26.6331H12.814L12.2744 26.2547C12.1328 26.1549 12.0938 25.9473 12.1865 25.7949C12.2793 25.6425 12.4722 25.6005 12.6138 25.6977L13.666 26.4386C13.7539 26.3966 13.8394 26.3546 13.9272 26.3178L12.9653 25.5427C12.7896 25.4008 12.7529 25.1302 12.8848 24.9436C13.0166 24.7545 13.2681 24.715 13.4438 24.8569L15.0918 26.1838V26.189C15.3433 26.3204 15.5264 26.6042 15.668 27.0377L17.145 31.3913L19.5571 27.7629C19.8086 27.3031 20.2896 27.0246 20.79 26.972L20.812 26.9641ZM25.9146 14.6494C28.6416 14.6494 30.8511 17.0272 30.8511 19.962C30.8511 22.8969 28.6416 25.2747 25.9146 25.2747C23.1875 25.2747 20.978 22.8969 20.978 19.962C20.978 17.0298 23.1875 14.6494 25.9146 14.6494ZM35.6094 17.1822L36.4028 17.3188L36.2905 18.0729L35.4971 17.9363L35.6094 17.1822ZM36.4639 16.9063L35.6729 16.7697C35.7485 15.7213 35.6704 15.1197 35.8267 14.0845C35.8828 13.7035 36.2173 13.4434 36.5713 13.5064C36.9253 13.5695 37.167 13.9268 37.1108 14.3078C36.9521 15.3404 36.6982 15.8869 36.4639 16.9063Z" fill="white"/>
</g>
<defs>
<linearGradient id="paint0_linear_7095_14888" x1="26.5" y1="0" x2="26.5" y2="53" gradientUnits="userSpaceOnUse">
<stop stop-color="#F5553F"/>
<stop offset="1" stop-color="#F5464D"/>
</linearGradient>
<clipPath id="clip0_7095_14888">
<rect width="30" height="30" fill="white" transform="translate(11 12)"/>
</clipPath>
</defs>
</svg>
